<svg xmlns="http://www.w3.org/2000/svg" viewBox="-154 548 32 32"><path d="M-135.366 565.288l-3.982 1.334-1.303-3.888 3.982-1.334z"/><path d="M-124.3 559.9c-3.1-10.3-7.6-12.7-17.9-9.6s-12.7 7.6-9.6 17.9c3.1 10.3 7.6 12.7 17.9 9.6s12.7-7.6 9.6-17.9zm-5.2 6.7l-1.9.6.7 2c.3.8-.2 1.7-1 2-.2 0-.4.1-.5.1-.6 0-1.2-.4-1.4-1.1l-.7-2-4 1.3.7 2c.3.8-.2 1.7-1 2-.2 0-.4.1-.5.1-.6 0-1.2-.4-1.4-1.1l-.7-2-1.9.6c-.2 0-.4.1-.5.1-.6 0-1.2-.4-1.4-1.1-.3-.8.2-1.7 1-2l1.9-.6-1.3-3.9-1.9.6c-.2 0-.4.1-.5.1-.6 0-1.2-.4-1.4-1.1-.3-.8.2-1.7 1-2l1.9-.6-.7-2c-.3-.8.2-1.7 1-2 .8-.3 1.7.2 2 1l.7 2 4-1.3-.7-2c-.3-.8.2-1.7 1-2 .8-.3 1.7.2 2 1l.7 2 1.9-.6c.8-.3 1.7.2 2 1 .3.8-.2 1.7-1 2l-1.9.6 1.3 3.9 1.9-.6c.8-.3 1.7.2 2 1-.1.8-.5 1.7-1.4 2z"/></svg>